<svg width="34" height="34" viewBox="0 0 34 34" fill="none" xmlns="http://www.w3.org/2000/svg">
<path d="M27.3594 1.59375H6.64062C3.55991 1.59375 1.0625 4.09116 1.0625 7.17188V26.8281C1.0625 29.9088 3.55991 32.4062 6.64062 32.4062H27.3594C30.4401 32.4062 32.9375 29.9088 32.9375 26.8281V7.17188C32.9375 4.09116 30.4401 1.59375 27.3594 1.59375Z" fill="#330000"/>
<path d="M17.1049 20.7188H12.3516L11.1244 24.2622C11.1102 24.3791 11.0363 24.4375 10.9026 24.4375H8.67133C8.52258 24.4375 8.47079 24.3645 8.51594 24.2184L12.8217 11.4298C12.9433 11.0405 13.0034 10.6345 12.9997 10.2266C12.9973 10.2086 12.9991 10.1902 13.0049 10.173C13.0107 10.1558 13.0204 10.1402 13.0333 10.1273C13.0461 10.1145 13.0618 10.1048 13.079 10.0989C13.0962 10.0931 13.1145 10.0913 13.1325 10.0938H16.2563C16.3466 10.0938 16.3984 10.1309 16.413 10.2027L21.2314 24.2409C21.2766 24.3738 21.2394 24.4375 21.1198 24.4375H18.6216C18.5754 24.4403 18.5294 24.4291 18.4897 24.4054C18.4499 24.3817 18.4181 24.3466 18.3985 24.3047L17.1049 20.7188ZM12.8828 18.3281H16.5856C16.4966 18.1329 14.8312 12.7593 14.7116 12.3064H14.6904L12.8828 18.3281ZM23.8943 12.75C23.6849 12.759 23.4758 12.7258 23.2794 12.6526C23.083 12.5794 22.9032 12.4675 22.7508 12.3237C22.6016 12.172 22.4856 11.9909 22.4101 11.792C22.3347 11.5931 22.3014 11.3807 22.3125 11.1682C22.3026 10.953 22.3375 10.7382 22.415 10.5372C22.4925 10.3363 22.6109 10.1536 22.7627 10.0008C22.9165 9.85448 23.0978 9.74035 23.2963 9.66509C23.4947 9.58983 23.7061 9.55495 23.9182 9.5625C24.1307 9.55144 24.3431 9.58469 24.542 9.66014C24.7409 9.73559 24.922 9.8516 25.0737 10.0008C25.2189 10.1572 25.3314 10.341 25.4046 10.5415C25.4778 10.742 25.5102 10.955 25.5 11.1682C25.5111 11.3807 25.4778 11.5931 25.4024 11.792C25.3269 11.9909 25.2109 12.172 25.0617 12.3237C24.9053 12.4689 24.7215 12.5814 24.521 12.6546C24.3205 12.7278 24.1075 12.7602 23.8943 12.75V12.75ZM22.5781 24.2383V13.9905C22.5745 13.9663 22.5767 13.9416 22.5844 13.9183C22.592 13.8951 22.605 13.874 22.6223 13.8567C22.6396 13.8394 22.6607 13.8264 22.684 13.8187C22.7072 13.8111 22.7319 13.8089 22.7561 13.8125H25.0564C25.0806 13.8092 25.1051 13.8115 25.1282 13.8193C25.1513 13.8271 25.1723 13.8401 25.1895 13.8573C25.2068 13.8746 25.2198 13.8956 25.2276 13.9187C25.2353 13.9417 25.2377 13.9663 25.2344 13.9905V24.2595C25.238 24.2837 25.2358 24.3084 25.2281 24.3317C25.2205 24.3549 25.2075 24.376 25.1902 24.3933C25.1729 24.4106 25.1518 24.4236 25.1285 24.4313C25.1053 24.4389 25.0806 24.4411 25.0564 24.4375H22.7773C22.7503 24.4413 22.7228 24.4387 22.6969 24.43C22.671 24.4213 22.6475 24.4067 22.6282 24.3874C22.6089 24.3681 22.5943 24.3446 22.5856 24.3187C22.577 24.2929 22.5744 24.2653 22.5781 24.2383Z" fill="#FF9A00"/>
</svg>
