<svg width="30" height="30" viewBox="0 0 30 30" fill="none" xmlns="http://www.w3.org/2000/svg">
<path d="M0 26.1318C0 28.2683 1.73191 30 3.86824 30H26.1316C28.2683 30 30 28.2681 30 26.1318V3.86836C30 1.73168 28.2681 0 26.1318 0H3.86836C1.73168 0 0 1.73191 0 3.86824V26.1316V26.1318Z" fill="#563D7C"/>
<path d="M12.4404 13.2701V9.02168H16.18C16.5362 9.02168 16.8796 9.05133 17.2103 9.11074C17.541 9.17004 17.8336 9.27598 18.088 9.42867C18.3423 9.58137 18.5459 9.79336 18.6986 10.0646C18.8511 10.3361 18.9275 10.6838 18.9275 11.1076C18.9275 11.8709 18.6986 12.4221 18.2406 12.7613C17.7827 13.1005 17.1976 13.2701 16.4852 13.2701H12.4404V13.2701ZM8.44629 5.91797V24.082H17.2485C18.0626 24.082 18.8555 23.9803 19.6272 23.7768C20.3988 23.5732 21.0857 23.2595 21.6878 22.8355C22.2898 22.4115 22.769 21.8645 23.1251 21.1946C23.4813 20.5247 23.6594 19.7318 23.6594 18.816C23.6594 17.6796 23.3837 16.7087 22.8326 15.9032C22.2813 15.0975 21.446 14.5336 20.3267 14.2113C21.1408 13.8213 21.7556 13.3209 22.1712 12.7104C22.5866 12.0998 22.7944 11.3367 22.7944 10.4208C22.7944 9.57281 22.6545 8.86055 22.3746 8.28387C22.0948 7.70731 21.7004 7.24512 21.1916 6.89742C20.6829 6.54973 20.0724 6.29953 19.36 6.14695C18.6477 5.99426 17.859 5.91797 16.9941 5.91797H8.44629V5.91797ZM12.4404 20.9783V15.9921H16.7905C17.6555 15.9921 18.3509 16.1913 18.8767 16.59C19.4024 16.9886 19.6654 17.6542 19.6654 18.587C19.6654 19.062 19.5847 19.452 19.4236 19.7572C19.2625 20.0625 19.0463 20.3043 18.7749 20.4823C18.5036 20.6604 18.1897 20.7875 17.8336 20.8639C17.4774 20.9401 17.1043 20.9783 16.7142 20.9783H12.4404V20.9783Z" fill="white"/>
</svg>
