<svg width="31" height="31" viewBox="0 0 31 31" fill="none" xmlns="http://www.w3.org/2000/svg">
<path d="M26.4811 0H4.51895C2.0232 0 0 2.0232 0 4.51895V26.4811C0 28.9768 2.0232 31 4.51895 31H26.4811C28.9768 31 31 28.9768 31 26.4811V4.51895C31 2.0232 28.9768 0 26.4811 0Z" fill="#525967"/>
<path d="M26.481 1.35568C27.32 1.35568 28.1246 1.68896 28.7178 2.28218C29.311 2.87541 29.6443 3.68 29.6443 4.51895V26.481C29.6443 27.32 29.311 28.1246 28.7178 28.7178C28.1246 29.311 27.32 29.6443 26.481 29.6443H4.51895C3.68 29.6443 2.87541 29.311 2.28218 28.7178C1.68896 28.1246 1.35568 27.32 1.35568 26.481V4.51895C1.35568 3.68 1.68896 2.87541 2.28218 2.28218C2.87541 1.68896 3.68 1.35568 4.51895 1.35568H26.481ZM26.481 0H4.51895C3.32045 0 2.17104 0.476102 1.32357 1.32357C0.476102 2.17104 0 3.32045 0 4.51895V26.481C0 27.6795 0.476102 28.829 1.32357 29.6764C2.17104 30.5239 3.32045 31 4.51895 31H26.481C27.6795 31 28.829 30.5239 29.6764 29.6764C30.5239 28.829 31 27.6795 31 26.481V4.51895C31 3.32045 30.5239 2.17104 29.6764 1.32357C28.829 0.476102 27.6795 0 26.481 0V0Z" fill="#454B57"/>
<path d="M11.6363 27.0911C12.1437 27.0911 12.6461 26.9912 13.1149 26.797C13.5837 26.6029 14.0096 26.3183 14.3684 25.9595C14.7271 25.6007 15.0117 25.1748 15.2059 24.706C15.4001 24.2372 15.5 23.7348 15.5 23.2274V19.3637H11.6363C11.1289 19.3637 10.6265 19.4637 10.1577 19.6578C9.68898 19.852 9.26304 20.1366 8.90427 20.4954C8.54549 20.8542 8.26089 21.2801 8.06672 21.7489C7.87255 22.2176 7.77261 22.72 7.77261 23.2274C7.77261 23.7348 7.87255 24.2372 8.06672 24.706C8.26089 25.1748 8.54549 25.6007 8.90427 25.9595C9.26304 26.3183 9.68898 26.6029 10.1577 26.797C10.6265 26.9912 11.1289 27.0911 11.6363 27.0911V27.0911Z" fill="#0ACF83"/>
<path d="M7.77261 15.5C7.77261 14.4753 8.17968 13.4925 8.90427 12.7679C9.62885 12.0433 10.6116 11.6363 11.6363 11.6363H15.5V19.3637H11.6363C10.6116 19.3637 9.62885 18.9566 8.90427 18.232C8.17968 17.5074 7.77261 16.5247 7.77261 15.5V15.5Z" fill="#A259FF"/>
<path d="M7.77261 7.77258C7.77261 6.74786 8.17968 5.76511 8.90427 5.04053C9.62885 4.31594 10.6116 3.90887 11.6363 3.90887H15.5V11.6363H11.6363C10.6116 11.6363 9.62885 11.2292 8.90427 10.5046C8.17968 9.78004 7.77261 8.79729 7.77261 7.77258V7.77258Z" fill="#F24E1E"/>
<path d="M15.5 3.93149H19.3637C20.3884 3.93149 21.3712 4.33856 22.0958 5.06314C22.8203 5.78772 23.2274 6.77047 23.2274 7.79519C23.2274 8.81991 22.8203 9.80266 22.0958 10.5272C21.3712 11.2518 20.3884 11.6589 19.3637 11.6589H15.5V3.93149Z" fill="#FF7262"/>
<path d="M23.2274 15.5C23.2274 16.2641 23.0008 17.0112 22.5763 17.6465C22.1517 18.2819 21.5483 18.7771 20.8423 19.0696C20.1363 19.362 19.3594 19.4385 18.6099 19.2894C17.8604 19.1404 17.172 18.7724 16.6317 18.232C16.0913 17.6917 15.7233 17.0032 15.5742 16.2538C15.4252 15.5043 15.5017 14.7274 15.7941 14.0214C16.0865 13.3154 16.5818 12.712 17.2171 12.2874C17.8525 11.8629 18.5995 11.6363 19.3637 11.6363C20.3884 11.6363 21.3712 12.0433 22.0958 12.7679C22.8203 13.4925 23.2274 14.4753 23.2274 15.5Z" fill="#1ABCFE"/>
</svg>
