<svg width="33" height="33" viewBox="0 0 33 33" fill="none" xmlns="http://www.w3.org/2000/svg">
<path d="M32.16 15.0506L17.9502 0.841506C17.1324 0.023209 15.8052 0.023209 14.9861 0.841506L12.036 3.79243L15.7789 7.53535C16.649 7.2417 17.6462 7.43867 18.3395 8.13193C19.0364 8.82957 19.232 9.8353 18.9307 10.7082L22.538 14.3161C23.4107 14.0152 24.4179 14.2096 25.1145 14.9078C26.0891 15.8815 26.0891 17.4601 25.1145 18.4344C24.14 19.4089 22.5619 19.4089 21.5869 18.4344C20.8542 17.7012 20.673 16.6248 21.0442 15.7219L17.6803 12.3577L17.6797 21.2113C17.9174 21.3286 18.1415 21.4853 18.3395 21.6826C19.3138 22.6563 19.3138 24.2344 18.3395 25.2102C17.3652 26.184 15.7861 26.184 14.8129 25.2102C13.8389 24.2346 13.7589 22.6566 14.7327 21.6826C14.9735 21.442 15.2109 21.2603 15.4687 21.1386V12.203C15.2109 12.0814 14.9737 11.9009 14.7324 11.6588C13.9948 10.9215 13.8569 9.83865 14.2354 8.93218L10.5659 5.24211L0.832474 14.9848C0.0139196 15.8039 0.0190759 17.1311 0.837631 17.9497L15.0498 32.1588C15.8678 32.9771 17.1961 32.9771 18.0154 32.1588L32.159 18.0157C32.9776 17.1969 32.9783 15.8689 32.16 15.0506V15.0506Z" fill="#F34F29"/>
</svg>
