<svg width="34" height="34" viewBox="0 0 34 34" fill="none" xmlns="http://www.w3.org/2000/svg">
<path d="M33.9448 16.9348L33.9207 16.9249L33.9901 16.9943C34.0198 16.9943 33.9448 16.9348 33.9448 16.9348Z" fill="black"/>
<path d="M32.9687 17.7338V17.7962L33.1018 17.8528L32.9687 17.7338Z" fill="black"/>
<path d="M21.1551 23.0577V23.0636C21.1744 23.0726 21.1655 23.0651 21.1551 23.0577Z" fill="url(#paint0_linear_9_1631)"/>
<path d="M3.88592 21.2217L7.8285 19.5443L7.87242 19.5316L0.7565 18.0455L3.88592 21.2217Z" fill="url(#paint1_linear_9_1631)"/>
<path d="M9.75517 17.4434C9.83308 17.4434 9.911 17.4477 9.9875 17.4548L9.979 17.4533C10.0527 17.4434 10.1363 17.4378 10.2227 17.4378C10.3091 17.4378 10.3927 17.4434 10.4763 17.4548L10.4663 17.4533L14.3494 11.4113C14.0576 11.1095 13.8777 10.6958 13.8763 10.2411C13.8692 10.183 13.8663 10.115 13.8663 10.0484C13.8663 9.98184 13.8706 9.91384 13.8777 9.84867L13.8763 9.85717L9.16158 7.67551L5.36775 11.3702L9.53275 17.4533C9.59933 17.4463 9.67725 17.4434 9.75517 17.4434Z" fill="url(#paint2_linear_9_1631)"/>
<path d="M22.8919 11.9184L23.7065 6.87226L20.6819 3.69609L17.1247 9.17151V9.24659C17.2791 9.47892 17.3853 9.75517 17.4193 10.0541L17.4207 10.0626L22.3862 12.1692C22.5292 12.0587 22.6978 11.9723 22.8806 11.9198L22.8919 11.9184Z" fill="url(#paint3_linear_9_1631)"/>
<path d="M33.0466 17.8571L24.6415 14.263C24.4063 14.5747 24.055 14.7872 23.6541 14.8396L23.647 14.841L22.7276 20.4666C22.9911 20.7343 23.1568 21.1013 23.1583 21.505L28.3163 22.5888L33.0452 17.884V17.8571H33.0466Z" fill="url(#paint4_linear_9_1631)"/>
<path d="M28.7484 11.7243L25.1302 13.209L34 16.983L28.7484 11.7243Z" fill="url(#paint5_linear_9_1631)"/>
<path d="M8.24217 18.5371H8.245C8.34275 18.3558 8.45608 18.1999 8.58783 18.0611L8.585 18.0625L4.65517 12.1848L0 16.711L8.24217 18.5371Z" fill="url(#paint6_linear_9_1631)"/>
<path d="M21.8818 13.3719C21.879 13.3393 21.8776 13.3039 21.8776 13.2671C21.8776 13.2246 21.879 13.1849 21.8832 13.1438V13.1495C21.8847 13.1453 21.8847 13.141 21.8847 13.1368C21.8847 13.1198 21.879 13.1042 21.8691 13.0914L17.2281 11.1152C16.9193 11.5827 16.3965 11.8887 15.8015 11.8887C15.7817 11.8887 15.7618 11.8887 15.7434 11.8873H15.4643L11.6252 17.8245L21.8818 13.3719Z" fill="url(#paint7_linear_9_1631)"/>
<path d="M4.73025 21.9498L6.47983 23.6867L8.466 20.5997L8.33283 20.4652L4.73025 21.9498Z" fill="url(#paint8_linear_9_1631)"/>
<path d="M22.9642 22.5434C22.7956 22.7587 22.5746 22.9259 22.321 23.0279L22.3111 23.0322L21.2302 29.7415L27.5301 23.4926C27.5301 23.4926 27.5159 23.5209 27.5003 23.5209V23.4784L22.9642 22.5434Z" fill="url(#paint9_linear_9_1631)"/>
<path d="M24.0465 12.0516C24.2137 12.1366 24.3553 12.2457 24.4758 12.3774L24.4772 12.3788L27.812 10.8928L24.6996 7.80725L24.0026 12.0063L24.0465 12.0516Z" fill="url(#paint10_linear_9_1631)"/>
<path d="M16.8569 34L18.547 32.3227L10.8814 21.2075C10.6477 21.318 10.3714 21.3832 10.0824 21.3846C10.0796 21.3846 10.0768 21.3846 10.0739 21.3846C9.84867 21.3846 9.6305 21.3463 9.42934 21.2769L9.4435 21.2812L7.2505 24.4729L16.8569 34Z" fill="url(#paint11_linear_9_1631)"/>
<path d="M11.8617 18.9819C11.9099 19.0556 11.9581 19.1434 12.002 19.2341L12.0091 19.2497L20.3561 20.9709C20.5969 20.5544 21.0247 20.2697 21.5206 20.2286H21.5262L22.4315 14.6937L22.2402 14.5307L11.8617 18.9819Z" fill="url(#paint12_linear_9_1631)"/>
<path d="M16.9306 0L9.96342 6.84108C9.96342 6.84108 9.94925 6.91475 9.96342 6.93033L14.5605 8.88958C14.8637 8.63883 15.2533 8.48725 15.6811 8.48725C15.7038 8.48725 15.7264 8.48725 15.7491 8.48867H15.7463C15.9474 8.49008 16.1429 8.52267 16.3243 8.58217L16.3101 8.57792L19.8971 2.96792L16.9306 0Z" fill="url(#paint13_linear_9_1631)"/>
<path d="M20.2838 22.0192L20.281 22.0093L11.832 20.2725L11.713 20.4652L19.3786 31.5676L19.8376 31.1072L21.1423 23.0477C21.1423 23.0477 21.1508 23.0534 21.1565 23.0577V23.018C20.723 22.8381 20.4 22.4697 20.2838 22.0192Z" fill="url(#paint14_linear_9_1631)"/>
<defs>
<linearGradient id="paint0_linear_9_1631" x1="21.161" y1="1.97978" x2="21.161" y2="32.7051" gradientUnits="userSpaceOnUse">
<stop stop-color="#39C4B6"/>
<stop offset="1" stop-color="#529AC3"/>
</linearGradient>
<linearGradient id="paint1_linear_9_1631" x1="4.31517" y1="3.01042" x2="4.31517" y2="32.2334" gradientUnits="userSpaceOnUse">
<stop stop-color="#39C4B6"/>
<stop offset="1" stop-color="#529AC3"/>
</linearGradient>
<linearGradient id="paint2_linear_9_1631" x1="9.85858" y1="3.01042" x2="9.85858" y2="32.2334" gradientUnits="userSpaceOnUse">
<stop stop-color="#39C4B6"/>
<stop offset="1" stop-color="#529AC3"/>
</linearGradient>
<linearGradient id="paint3_linear_9_1631" x1="20.4156" y1="3.01042" x2="20.4156" y2="32.2334" gradientUnits="userSpaceOnUse">
<stop stop-color="#39C4B6"/>
<stop offset="1" stop-color="#529AC3"/>
</linearGradient>
<linearGradient id="paint4_linear_9_1631" x1="27.8871" y1="3.01042" x2="27.8871" y2="32.2334" gradientUnits="userSpaceOnUse">
<stop stop-color="#39C4B6"/>
<stop offset="1" stop-color="#529AC3"/>
</linearGradient>
<linearGradient id="paint5_linear_9_1631" x1="29.5644" y1="3.01042" x2="29.5644" y2="32.2334" gradientUnits="userSpaceOnUse">
<stop stop-color="#39C4B6"/>
<stop offset="1" stop-color="#529AC3"/>
</linearGradient>
<linearGradient id="paint6_linear_9_1631" x1="4.29392" y1="3.01042" x2="4.29392" y2="32.2334" gradientUnits="userSpaceOnUse">
<stop stop-color="#39C4B6"/>
<stop offset="1" stop-color="#529AC3"/>
</linearGradient>
<linearGradient id="paint7_linear_9_1631" x1="16.7535" y1="3.01042" x2="16.7535" y2="32.2334" gradientUnits="userSpaceOnUse">
<stop stop-color="#39C4B6"/>
<stop offset="1" stop-color="#529AC3"/>
</linearGradient>
<linearGradient id="paint8_linear_9_1631" x1="6.59741" y1="3.01041" x2="6.59741" y2="32.2334" gradientUnits="userSpaceOnUse">
<stop stop-color="#39C4B6"/>
<stop offset="1" stop-color="#529AC3"/>
</linearGradient>
<linearGradient id="paint9_linear_9_1631" x1="24.3808" y1="3.01041" x2="24.3808" y2="32.2334" gradientUnits="userSpaceOnUse">
<stop stop-color="#39C4B6"/>
<stop offset="1" stop-color="#529AC3"/>
</linearGradient>
<linearGradient id="paint10_linear_9_1631" x1="25.908" y1="3.01042" x2="25.908" y2="32.2334" gradientUnits="userSpaceOnUse">
<stop stop-color="#39C4B6"/>
<stop offset="1" stop-color="#529AC3"/>
</linearGradient>
<linearGradient id="paint11_linear_9_1631" x1="12.8988" y1="3.01042" x2="12.8988" y2="32.2334" gradientUnits="userSpaceOnUse">
<stop stop-color="#39C4B6"/>
<stop offset="1" stop-color="#529AC3"/>
</linearGradient>
<linearGradient id="paint12_linear_9_1631" x1="17.1459" y1="3.01041" x2="17.1459" y2="32.2334" gradientUnits="userSpaceOnUse">
<stop stop-color="#39C4B6"/>
<stop offset="1" stop-color="#529AC3"/>
</linearGradient>
<linearGradient id="paint13_linear_9_1631" x1="14.926" y1="3.01042" x2="14.926" y2="32.2334" gradientUnits="userSpaceOnUse">
<stop stop-color="#39C4B6"/>
<stop offset="1" stop-color="#529AC3"/>
</linearGradient>
<linearGradient id="paint14_linear_9_1631" x1="16.4333" y1="3.0104" x2="16.4333" y2="32.2334" gradientUnits="userSpaceOnUse">
<stop stop-color="#39C4B6"/>
<stop offset="1" stop-color="#529AC3"/>
</linearGradient>
</defs>
</svg>
