<svg width="32" height="31" viewBox="0 0 32 31" fill="none" xmlns="http://www.w3.org/2000/svg">
<g clip-path="url(#clip0_9_151)">
<path d="M1.33331 1.32765H30.6667V29.6724H1.33331V1.32765Z" fill="url(#paint0_radial_9_151)"/>
<path d="M1.33332 1.32766H30.6667V29.6723H1.33332V1.32766ZM0 30.9969H32.0001V0.00315857H0V30.9969ZM21.5734 12.7185C20.52 12.7185 20.1601 13.2483 20.1601 13.6854C20.1601 14.1622 20.4 14.4933 21.8134 15.2218C23.9067 16.2285 24.5601 17.1954 24.5601 18.6126C24.5601 20.7318 22.9334 21.8709 20.7334 21.8709C19.5734 21.8709 18.5733 21.6325 18 21.3014C17.9067 21.2617 17.8934 21.1955 17.8934 21.0895V19.1424C17.8934 19.01 17.96 18.9702 18.0534 19.0365C18.8934 19.5796 19.8534 19.8179 20.7334 19.8179C21.7867 19.8179 22.2267 19.3808 22.2267 18.7848C22.2267 18.308 21.92 17.8841 20.5733 17.1954C18.68 16.2947 17.8934 15.3808 17.8934 13.8576C17.8934 12.1489 19.2401 10.7317 21.5734 10.7317C22.72 10.7317 23.5201 10.904 23.96 11.1026C24.0667 11.1688 24.0934 11.2748 24.0934 11.3675V13.182C24.0934 13.288 24.0267 13.3543 23.8933 13.3145C23.3067 12.9437 22.44 12.7185 21.5734 12.7185V12.7185ZM10.1067 14.2947C10.4133 14.3212 10.6534 14.3212 11.1867 14.3212C12.7467 14.3212 14.2134 13.7781 14.2134 11.6722C14.2134 9.99006 13.16 9.14232 11.3867 9.14232C10.8534 9.14232 10.3467 9.16881 10.1067 9.18205V14.2947ZM7.73338 7.26149C7.73338 7.16879 7.92008 7.10252 8.02668 7.10252C8.88006 7.06279 10.1467 7.0363 11.4667 7.0363C15.16 7.0363 16.6 9.04957 16.6 11.6192C16.6 14.9834 14.1467 16.4271 11.1334 16.4271C10.6267 16.4271 10.4534 16.4007 10.0933 16.4007V21.4868C10.0933 21.5928 10.0533 21.6457 9.93336 21.6457H7.89336C7.78671 21.6457 7.73333 21.606 7.73333 21.4868V7.26149H7.73338Z" fill="#31C5F0"/>
</g>
<defs>
<radialGradient id="paint0_radial_9_151" cx="0" cy="0" r="1" gradientUnits="userSpaceOnUse" gradientTransform="translate(10.9943 7.67973) scale(22.2934 21.4413)">
<stop stop-color="#34364E" stop-opacity="0.98"/>
<stop offset="1" stop-color="#0C0824"/>
</radialGradient>
<clipPath id="clip0_9_151">
<rect width="32" height="31" fill="white"/>
</clipPath>
</defs>
</svg>
