<svg width="32" height="32" viewBox="0 0 32 32" fill="none" xmlns="http://www.w3.org/2000/svg">
<g clip-path="url(#clip0_19_3135)">
<path d="M25.14 8.06531C25.092 8.10131 25.0613 8.15731 25.0613 8.22131C25.0613 8.24131 25.064 8.25997 25.0693 8.27731V8.27597C25.1053 8.34797 25.1266 8.43197 25.1266 8.52131C25.1266 8.65597 25.0786 8.77997 24.9973 8.87597L24.9986 8.87464C24.9733 8.90664 24.9586 8.94664 24.9586 8.99064C24.9586 9.04931 24.9866 9.10264 25.0293 9.13731C25.06 9.16131 25.0986 9.17597 25.1413 9.17731C25.1973 9.17731 25.248 9.15064 25.2826 9.11064C25.4146 8.95197 25.496 8.74664 25.496 8.52131C25.496 8.37197 25.46 8.23331 25.3973 8.10797C25.364 8.06131 25.3093 8.03064 25.248 8.03064C25.208 8.03064 25.1706 8.04397 25.14 8.06531Z" fill="#F36933"/>
<path d="M25.3986 8.10917L25.396 8.104L25.3973 8.10788L25.3986 8.10917Z" fill="#F36933"/>
<path d="M18.0359 0.131933C9.27323 -0.992067 1.2559 5.19993 0.131896 13.9639C-0.992104 22.7266 5.19856 30.7426 13.9626 31.8679C22.7266 32.9919 30.7466 26.7999 31.8679 18.0359C32.9932 9.27327 26.8026 1.25727 18.0359 0.131933ZM21.3306 10.1119C21.0212 10.1159 20.7426 10.2426 20.5399 10.4453L14.6026 16.3826L13.3359 15.1159C19.1879 9.28127 20.2439 9.22527 21.3306 10.1119ZM14.8466 16.5933L20.7666 10.6733C20.9172 10.5159 21.1292 10.4173 21.3652 10.4173C21.8212 10.4173 22.1919 10.7879 22.1919 11.2439C22.1919 11.4973 22.0772 11.7253 21.8972 11.8759L21.8959 11.8773L15.6306 17.3773L14.8466 16.5933ZM15.2866 17.5186L13.8199 17.8359C13.8146 17.8373 13.8079 17.8373 13.8026 17.8373C13.7719 17.8373 13.7439 17.8199 13.7306 17.7933C13.7239 17.7813 13.7199 17.7679 13.7199 17.7533C13.7199 17.7306 13.7292 17.7106 13.7439 17.6959L14.6039 16.8359L15.2866 17.5186ZM11.5492 16.9066L13.1119 15.3439L14.2839 16.5146L11.6452 17.0826C11.6372 17.0839 11.6292 17.0853 11.6199 17.0853C11.5812 17.0853 11.5479 17.0626 11.5319 17.0306C11.5226 17.0159 11.5172 16.9986 11.5172 16.9786C11.5172 16.9506 11.5292 16.9239 11.5492 16.9066ZM6.6879 24.9826C6.6359 24.9786 6.5959 24.9359 6.5959 24.8826C6.5959 24.8786 6.5959 24.8759 6.5959 24.8719C6.59856 24.8479 6.60923 24.8266 6.62523 24.8106H6.6279L7.88923 23.5493L9.51856 25.1786L6.6879 24.9826ZM9.92256 23.3093C9.82256 23.3613 9.75723 23.4626 9.75723 23.5799C9.75723 23.6053 9.7599 23.6293 9.76656 23.6533V23.6506L10.0372 24.8039C10.0399 24.8159 10.0426 24.8293 10.0426 24.8439C10.0426 24.9359 9.9679 25.0106 9.8759 25.0106C9.82923 25.0106 9.78656 24.9919 9.7559 24.9599H9.7519L8.11456 23.3213L13.1306 18.3106L15.5572 17.7866L16.7226 18.9519C15.0492 20.4213 12.7612 21.8866 9.92256 23.3093ZM16.9599 18.7386H16.9572L15.8386 17.6199L22.1039 12.1199C22.1612 12.0679 22.2132 12.0133 22.2599 11.9533L22.2626 11.9506C22.0666 13.7439 19.5572 16.2773 16.9599 18.7386ZM23.5492 10.8346C22.8799 10.8346 22.2746 10.5639 21.8359 10.1253H21.8372L21.8332 10.1226C21.3959 9.68393 21.1252 9.07727 21.1252 8.40927C21.1252 7.06793 22.2132 5.97993 23.5546 5.97993C24.1492 5.97993 24.6932 6.19327 25.1146 6.54793L25.1106 6.54527L22.9639 8.69593C22.9346 8.72527 22.9172 8.76393 22.9172 8.80793C22.9172 8.85193 22.9346 8.89193 22.9639 8.91993L24.6266 10.5826C24.3119 10.7413 23.9412 10.8346 23.5492 10.8346ZM25.2746 10.1253C25.1666 10.2319 25.0492 10.3266 24.9212 10.4106L24.9132 10.4159H24.9119L23.3026 8.8066L25.3466 6.7626C26.2279 7.7226 26.1959 9.20527 25.2746 10.1253Z" fill="#F36933"/>
</g>
<defs>
<clipPath id="clip0_19_3135">
<rect width="32" height="32" fill="white"/>
</clipPath>
</defs>
</svg>
