<svg width="45" height="34" viewBox="0 0 45 34" fill="none" xmlns="http://www.w3.org/2000/svg">
<g clip-path="url(#clip0_9_183)">
<path d="M38.7246 19.5323C37.1513 19.5412 35.789 19.9219 34.6465 20.4886C34.2246 19.6475 33.8027 18.9125 33.7325 18.3636C33.6534 17.7261 33.5567 17.3364 33.6534 16.5751C33.75 15.8135 34.1894 14.7333 34.1894 14.6448C34.1806 14.5651 34.0927 14.1755 33.1875 14.1666C32.2823 14.1578 31.5 14.3437 31.4121 14.5828C31.3242 14.8219 31.1484 15.3708 31.0342 15.9375C30.876 16.7698 29.2236 19.7182 28.2832 21.2677C27.9756 20.6656 27.7119 20.1344 27.6591 19.7093C27.5801 19.0719 27.4833 18.6822 27.5801 17.9208C27.6767 17.1593 28.1162 16.0791 28.1162 15.9906C28.1074 15.9109 28.0195 15.5213 27.1143 15.5125C26.209 15.5036 25.4268 15.6896 25.3389 15.9286C25.251 16.1677 25.1544 16.7344 24.961 17.2833C24.7764 17.8323 22.5791 22.7552 22.0078 24.039C21.7178 24.6942 21.463 25.2166 21.2783 25.5708C21.0937 25.925 21.2695 25.5974 21.2519 25.6328C21.0937 25.9338 21.0058 26.1021 21.0058 26.1021V26.111C20.8828 26.3324 20.751 26.5448 20.6894 26.5448C20.6454 26.5448 20.5575 25.9515 20.7069 25.137C21.0321 23.4281 21.8231 20.7631 21.8144 20.6657C21.8144 20.6214 21.9638 20.1521 21.3046 19.9131C20.663 19.674 20.4346 20.0725 20.3817 20.0725C20.329 20.0725 20.2851 20.2141 20.2851 20.2141C20.2851 20.2141 20.997 17.2127 18.9228 17.2127C17.622 17.2127 15.829 18.6382 14.9413 19.9397C14.3788 20.2496 13.1835 20.9048 11.9179 21.6043C11.4345 21.8699 10.9335 22.1533 10.4589 22.41L10.3623 22.3036C7.84863 19.6031 3.19922 17.6906 3.39258 14.0604C3.46289 12.7411 3.91992 9.26145 12.3223 5.04687C19.2042 1.59375 24.7149 2.54114 25.6728 4.64843C27.0351 7.65884 22.7285 13.2547 15.5743 14.0604C12.8497 14.3703 11.417 13.3078 11.0567 12.9094C10.6788 12.4932 10.6261 12.4755 10.4854 12.5552C10.2569 12.6792 10.3975 13.051 10.4854 13.2724C10.6964 13.8302 11.5753 14.8219 13.0694 15.3177C14.3789 15.7515 17.5782 15.9906 21.4454 14.4854C25.7784 12.7943 29.1622 8.10155 28.169 4.17916C27.1583 0.185935 20.5841 -1.12448 14.3702 1.09791C10.6699 2.42604 6.66211 4.49791 3.77929 7.21614C0.351562 10.439 -0.19336 13.2547 0.0351559 14.4234C0.835048 18.5937 6.53906 21.312 8.82421 23.3218C8.70996 23.3837 8.60449 23.4457 8.50781 23.4989C7.36523 24.0655 3.01465 26.3588 1.9248 28.7848C0.694335 31.5296 2.11816 33.5041 3.06738 33.7698C6.00293 34.5932 9.00878 33.1145 10.6348 30.6797C12.2519 28.2448 12.0586 25.0838 11.3115 23.6406L11.2851 23.5875L12.1815 23.0562C12.7617 22.7109 13.333 22.3922 13.8339 22.1176C13.5527 22.8879 13.3505 23.7999 13.2451 25.128C13.1221 26.6864 13.7549 28.7051 14.5898 29.502C14.959 29.8472 15.3984 29.8561 15.6709 29.8561C16.6377 29.8561 17.0771 29.0503 17.5605 28.0853C18.1582 26.9077 18.6855 25.5442 18.6855 25.5442C18.6855 25.5442 18.0264 29.2363 19.8281 29.2363C20.4873 29.2363 21.1465 28.3775 21.4453 27.9348V27.9436C21.4453 27.9436 21.4629 27.9171 21.498 27.8551C21.5349 27.8002 21.5701 27.7441 21.6035 27.6869V27.6692C21.8672 27.2088 22.456 26.1552 23.3349 24.4109C24.4686 22.162 25.5586 19.3463 25.5586 19.3463C25.5586 19.3463 25.664 20.037 25.9892 21.1703C26.1825 21.8433 26.6044 22.5781 26.9296 23.2953C26.6659 23.6672 26.5077 23.8797 26.5077 23.8797L26.5165 23.8886C26.3056 24.1719 26.0683 24.4731 25.8222 24.774C24.9258 25.8542 23.8535 27.085 23.7129 27.4392C23.5459 27.8553 23.581 28.1652 23.9062 28.4132C24.1435 28.5903 24.5654 28.6256 25.0137 28.5903C25.8223 28.537 26.3847 28.3335 26.666 28.2094C27.1055 28.0501 27.6064 27.811 28.0898 27.4568C28.9687 26.8017 29.5049 25.872 29.4521 24.6324C29.4258 23.9507 29.206 23.2778 28.9336 22.6403C29.0127 22.5252 29.0919 22.41 29.1709 22.2861C30.5596 20.2407 31.6318 17.9918 31.6318 17.9918C31.6318 17.9918 31.7373 18.6824 32.0625 19.8158C32.2294 20.3913 32.5635 21.02 32.8623 21.6398C31.5615 22.7112 30.7441 23.9508 30.4629 24.7653C29.9443 26.2705 30.3486 26.9523 31.1133 27.1117C31.4559 27.1825 31.9482 27.0232 32.3173 26.8638C32.7743 26.7133 33.328 26.4564 33.8379 26.0758C34.7168 25.4205 35.5605 24.5086 35.5166 23.2778C35.4902 22.7112 35.3408 22.1534 35.1386 21.6221C36.2461 21.1617 37.6786 20.8961 39.498 21.1174C43.4092 21.5778 44.1826 24.0393 44.0333 25.0664C43.8839 26.0936 43.0665 26.6601 42.7939 26.8372C42.5215 27.0054 42.4336 27.0675 42.4599 27.1914C42.4951 27.3774 42.6181 27.3685 42.8554 27.3331C43.1806 27.2799 44.9121 26.492 44.9824 24.5973C45.0879 22.162 42.7939 19.5058 38.7246 19.5323V19.5323ZM8.56054 29.7765C7.26855 31.202 5.44922 31.7422 4.67578 31.2817C3.84082 30.7948 4.16592 28.6963 5.75683 27.1823C6.72363 26.2614 7.98046 25.4114 8.80663 24.889C8.9912 24.7739 9.27246 24.6058 9.60644 24.4021C9.65917 24.3667 9.69433 24.3489 9.69433 24.3489C9.75585 24.3135 9.82617 24.2692 9.89648 24.225C10.4853 26.3854 9.92285 28.2802 8.56054 29.7765V29.7765ZM18.0088 23.3041C17.5605 24.4109 16.6113 27.2531 16.04 27.0937C15.5478 26.9609 15.249 24.8093 15.9433 22.6843C16.2948 21.6129 17.0419 20.338 17.4813 19.8421C18.1933 19.0452 18.9667 18.7796 19.1601 19.1072C19.3887 19.5323 18.29 22.6135 18.0088 23.3041ZM25.8047 27.0583C25.6113 27.1558 25.4355 27.2265 25.3564 27.1735C25.2949 27.1381 25.4354 27.0053 25.4354 27.0053C25.4354 27.0053 26.411 25.9516 26.7977 25.4646C27.0175 25.1814 27.2811 24.8538 27.5624 24.4818V24.5881C27.5625 25.863 26.3496 26.713 25.8047 27.0583ZM31.8163 25.6771C31.6757 25.5708 31.6933 25.2432 32.1679 24.2161C32.3525 23.8088 32.7743 23.1271 33.5038 22.4807C33.5917 22.7463 33.6445 23.003 33.6356 23.2422C33.6269 24.8359 32.5019 25.4291 31.8163 25.6771Z" fill="#CF649A"/>
</g>
<defs>
<clipPath id="clip0_9_183">
<rect width="45" height="34" fill="white"/>
</clipPath>
</defs>
</svg>
