<svg width="32" height="32" viewBox="0 0 32 32" fill="none" xmlns="http://www.w3.org/2000/svg">
<path d="M0 16V32H32V0H0V16ZM19.4173 26.168C19.5613 26.0867 20.0987 25.776 20.6067 25.4813L21.5267 24.948L21.72 25.2333C21.9893 25.644 22.5773 26.208 22.9333 26.396C23.9547 26.9347 25.356 26.8587 26.0467 26.2387C26.304 26.0213 26.4653 25.6987 26.4653 25.3387C26.4653 25.3173 26.4653 25.2973 26.464 25.276V25.2787C26.464 24.908 26.4173 24.7453 26.224 24.4653C25.976 24.1107 25.468 23.812 24.0253 23.1853C22.3747 22.4747 21.664 22.0333 21.0133 21.332C20.6213 20.8867 20.3187 20.3507 20.1427 19.7613L20.1347 19.732C20.0133 19.28 19.9827 18.1467 20.0787 17.6907C20.4187 16.0947 21.6227 14.984 23.36 14.6533C23.924 14.5467 25.2347 14.5867 25.788 14.724V14.7253C26.6013 14.928 27.22 15.2893 27.7893 15.8787C28.084 16.1933 28.5213 16.7667 28.556 16.9053C28.5667 16.9453 27.1747 17.8787 26.332 18.4027C26.3013 18.4227 26.1787 18.2907 26.0427 18.088C25.6293 17.488 25.1987 17.2293 24.5387 17.184C23.568 17.1173 22.944 17.6253 22.9493 18.4733C22.9493 18.488 22.948 18.5053 22.948 18.5227C22.948 18.724 22.9987 18.9133 23.088 19.0787L23.0853 19.072C23.2987 19.5133 23.696 19.7787 24.9387 20.316C27.2307 21.3027 28.2107 21.952 28.82 22.876C29.5 23.9067 29.6533 25.5533 29.1907 26.7773C28.684 28.108 27.424 29.012 25.6507 29.3107C25.1027 29.408 23.8027 29.3933 23.2133 29.2867C21.928 29.0573 20.7093 28.4227 19.9573 27.5893C19.6627 27.2653 19.088 26.416 19.124 26.356C19.1387 26.3347 19.2707 26.2533 19.4173 26.168ZM7.01067 16.0867C7.01067 15.3747 7.02533 14.78 7.04533 14.7667C7.06133 14.7453 9.596 14.7347 12.668 14.74L18.2613 14.756L18.276 16.0613L18.2867 17.372H14.12V29.2067H11.1733V17.372H7.01067V16.0867Z" fill="#1677C7"/>
</svg>
