<svg width="38" height="38" viewBox="0 0 38 38" fill="none" xmlns="http://www.w3.org/2000/svg">
<path d="M7.50144 26.1796L6.7545 25.8067L11.4819 20.7409L12.5958 21.9343L7.50144 26.1796ZM23.75 30.4024L6.7545 12.1932L7.46581 11.8382L23.75 26.7663V30.4024ZM23.75 12.6397L17.5192 17.8315L15.7296 16.1904L23.75 7.59762V12.6397ZM30.875 28.3017L26.125 31.1517V6.84712L30.875 9.69712V28.3017Z" fill="#1F9CF0"/>
<path d="M32.6741 8.00731L25.5491 3.73231C25.517 3.71331 25.4814 3.70381 25.4469 3.68838C24.9755 3.40575 24.3663 3.45681 23.9756 3.87481L13.9781 14.5872L8.46806 9.53562C8.10469 9.20312 7.57269 9.13069 7.1345 9.34919L4.27144 10.7801C3.93537 10.9476 3.69906 11.2622 3.63375 11.6316C3.56844 12.0009 3.67887 12.3785 3.93419 12.6516L9.85862 19L3.93419 25.3484C3.67887 25.6215 3.56725 26.0003 3.63375 26.3684C3.70025 26.7366 3.93656 27.0524 4.27144 27.2199L7.1345 28.652C7.30312 28.7363 7.48481 28.7767 7.66531 28.7767C7.93725 28.7767 8.208 28.6829 8.4265 28.5012L14.2203 23.6728L23.9756 34.1252C24.2096 34.3757 24.5266 34.5028 24.8437 34.5028C25.061 34.5028 25.27 34.4232 25.4612 34.3045C25.4897 34.2902 25.5206 34.2843 25.5479 34.2677L32.6729 29.9927C33.0303 29.7789 33.25 29.3918 33.25 28.975V9.025C33.25 8.60819 33.0303 8.22106 32.6741 8.00731ZM7.50144 26.1796L6.7545 25.8067L11.4819 20.7409L12.5958 21.9343L7.50144 26.1796ZM23.75 30.4024L6.7545 12.1932L7.46581 11.8382L23.75 26.7662V30.4024ZM23.75 23.5434L19.2862 19.4512L23.75 15.732V23.5434ZM23.75 12.6397L17.5192 17.8315L15.7296 16.1904L23.75 7.59762V12.6397ZM30.875 28.3017L26.125 31.1517V6.84712L30.875 9.69713V28.3017Z" fill="#0065A9"/>
</svg>
