<svg width="34" height="34" viewBox="0 0 34 34" fill="none" xmlns="http://www.w3.org/2000/svg">
<path d="M31.1552 26.0578L17.595 33.7344V27.7552L26.0313 23.1094L31.1552 26.0578ZM32.0848 25.2184V9.17734L27.123 12.0461V22.355L32.0822 25.2158L32.0848 25.2184ZM2.84484 26.0578L16.3917 33.7291V27.7552L7.95281 23.1094L2.84484 26.0578ZM1.91516 25.2184V9.17734L6.87703 12.0461V22.355L1.91516 25.2184ZM2.49688 8.13875L16.405 0.265625V6.04563L7.49328 10.9464L7.42156 10.9863L2.49688 8.13875ZM31.4978 8.13875L17.595 0.265625V6.04563L26.5067 10.9438L26.5784 10.9836L31.5031 8.13875H31.4978Z" fill="#8ED6FB"/>
<path d="M16.405 26.3952L8.06703 21.8078V12.7287L16.405 17.5312V26.3952ZM17.595 26.3952L25.933 21.8131V12.7287L17.595 17.5312V26.3952ZM8.63281 11.6875L17 7.08156L25.3672 11.6875L17 16.5112L8.63281 11.6875Z" fill="#1C78C0"/>
</svg>
