<svg width="36" height="36" viewBox="0 0 36 36" fill="none" xmlns="http://www.w3.org/2000/svg">
<path d="M27.417 3.914C20.502 4.043 15.685 0.549002 12.353 0.612002C9.021 0.675002 2.057 2.721 2.344 18.052C2.631 33.383 12.088 35.456 15.754 35.388C32.917 35.067 39.665 3.685 27.417 3.914V3.914Z" fill="#EFEFEF"/>
<path d="M19.875 4.041H21.875V5.041H19.875V4.041ZM14.125 4.041H16.125V5.041H14.125V4.041ZM17.625 0.541H18.625V2.541H17.625V0.541ZM27.342 29.18C26.515 29.18 25.842 28.507 25.842 27.68C25.842 26.853 26.515 26.18 27.342 26.18C28.169 26.18 28.842 26.853 28.842 27.68C28.842 28.507 28.169 29.18 27.342 29.18ZM27.342 27.18C27.066 27.18 26.842 27.404 26.842 27.68C26.842 27.956 27.066 28.18 27.342 28.18C27.618 28.18 27.842 27.956 27.842 27.68C27.842 27.404 27.618 27.18 27.342 27.18Z" fill="#A4AFC1"/>
<path d="M18 21.424L12.75 17.772L6.75 21.424L18 29.25L29.25 21.424L23.25 17.772L18 21.424Z" fill="#2FDF84"/>
<path d="M18 21.424L6.75 13.598L18 6.75L29.25 13.598L18 21.424Z" fill="#F3F3F1"/>
<path d="M20.25 21.424L24.45 18.502L23.25 17.772L19.125 20.641L20.25 21.424ZM9 21.424L13.8 18.502L12.75 17.772L6.75 21.424L18 29.25L19.125 28.467L9 21.424Z" fill="#00B871"/>
<path d="M9 13.598L19.125 7.435L18 6.75L6.75 13.598L18 21.424L19.125 20.641L9 13.598Z" fill="#D5DBE1"/>
<path d="M18 30C17.85 30 17.7 29.955 17.572 29.866L6.322 22.04C6.113 21.895 5.993 21.654 6 21.401C6.007 21.148 6.143 20.915 6.359 20.783L17.609 13.935C17.849 13.789 18.149 13.789 18.389 13.935L29.639 20.783C29.855 20.915 29.991 21.147 29.998 21.401C30.005 21.655 29.885 21.895 29.677 22.04L18.427 29.866C18.3 29.955 18.15 30 18 30V30ZM8.124 21.466L18 28.336L27.876 21.465L18 15.454L8.124 21.466Z" fill="black"/>
<path d="M18 22.174C17.85 22.174 17.7 22.129 17.572 22.04L6.322 14.214C6.113 14.068 5.993 13.828 6 13.575C6.007 13.322 6.143 13.089 6.359 12.957L17.609 6.109C17.849 5.963 18.149 5.963 18.389 6.109L29.639 12.957C29.855 13.089 29.991 13.321 29.998 13.575C30.005 13.829 29.885 14.069 29.677 14.214L18.427 22.04C18.3 22.129 18.15 22.174 18 22.174V22.174ZM8.124 13.64L18 20.51L27.876 13.639L18 7.628L8.124 13.64Z" fill="black"/>
<path d="M6 13.598H7.5V21.424H6V13.598ZM17.25 21.424H18.75V29.25H17.25V21.424ZM17.25 6.75H18.75V14.576H17.25V6.75Z" fill="black"/>
</svg>
