<svg width="36" height="36" viewBox="0 0 36 36" fill="none" xmlns="http://www.w3.org/2000/svg">
<path d="M8.377 4.167C15.294 4.167 20.044 0.584 23.377 0.584C26.71 0.584 33.71 2.5 33.71 17.833C33.71 33.166 24.293 35.416 20.627 35.416C3.46 35.417 -3.873 4.167 8.377 4.167Z" fill="#EFEFEF"/>
<path d="M8.38653 7.14933L6.97234 8.56357L7.67946 9.27066L9.09365 7.85642L8.38653 7.14933Z" fill="#A4AFC1"/>
<path d="M4.32054 11.2153L2.90635 12.6296L3.61347 13.3367L5.02766 11.9224L4.32054 11.2153Z" fill="#A4AFC1"/>
<path d="M3.6133 6.97158L2.9061 7.67859L4.32011 9.093L5.02732 8.38599L3.6133 6.97158Z" fill="#A4AFC1"/>
<path d="M27.25 31.5C26.423 31.5 25.75 30.827 25.75 30C25.75 29.173 26.423 28.5 27.25 28.5C28.077 28.5 28.75 29.173 28.75 30C28.75 30.827 28.077 31.5 27.25 31.5ZM27.25 29.5C26.975 29.5 26.75 29.724 26.75 30C26.75 30.276 26.975 30.5 27.25 30.5C27.525 30.5 27.75 30.276 27.75 30C27.75 29.724 27.525 29.5 27.25 29.5Z" fill="#A4AFC1"/>
<path d="M17.999 6.75C16.72 6.75 8.864 11.267 8.228 12.375C7.592 13.483 7.588 22.518 8.228 23.625C8.867 24.732 16.721 29.25 17.999 29.25C19.276 29.25 27.131 24.728 27.771 23.625C28.41 22.522 28.41 13.472 27.771 12.375C27.131 11.278 19.278 6.75 17.999 6.75Z" fill="#2FDF84"/>
<path d="M10.478 23.625C9.838 22.518 9.842 13.483 10.478 12.375C11.008 11.45 16.553 8.162 19.123 7.094C18.614 6.883 18.21 6.75 17.999 6.75C16.72 6.75 8.864 11.267 8.228 12.375C7.592 13.483 7.588 22.518 8.228 23.625C8.867 24.732 16.721 29.25 17.999 29.25C18.211 29.25 18.614 29.117 19.124 28.905C16.556 27.838 11.012 24.549 10.478 23.625Z" fill="#00B871"/>
<path d="M17.999 30C16.439 30 8.356 25.346 7.579 24C6.805 22.658 6.804 13.351 7.578 12.001C8.351 10.656 16.434 6 17.999 6C19.552 6 27.634 10.652 28.418 11.997C29.201 13.34 29.202 22.652 28.419 24.001C27.639 25.347 19.556 30 17.999 30ZM17.999 7.5C16.823 7.592 9.513 11.8 8.875 12.754C8.374 13.775 8.374 22.226 8.882 23.255C9.515 24.198 16.855 28.423 18.007 28.499C19.141 28.423 26.483 24.197 27.126 23.241C27.626 22.223 27.627 13.776 27.118 12.744C26.48 11.805 19.169 7.593 17.999 7.5Z" fill="black"/>
<path d="M20.507 18.75H15.491C15.289 18.75 15.095 18.668 14.955 18.524C14.813 18.379 14.736 18.185 14.741 17.982C14.75 17.597 14.752 17.044 14.754 16.433C14.757 15.073 14.762 13.532 14.842 12.679L16.336 12.821C16.262 13.605 16.257 15.176 16.254 16.438C16.253 16.725 16.252 17 16.25 17.25H19.759C19.757 16.092 19.738 14.925 19.699 13.774L21.199 13.725C21.244 15.107 21.263 16.511 21.257 17.897V18C21.257 18.414 20.921 18.75 20.507 18.75Z" fill="black"/>
<path d="M21.244 23.25H19.744C19.744 22.015 19.772 20.291 19.789 19.456C19.782 19.366 19.768 19.2 19.762 18.75L16.241 18.771C16.237 19.914 16.235 20.817 16.305 22.212L14.807 22.288C14.735 20.852 14.737 19.886 14.741 18.767V18C14.741 17.586 15.077 17.25 15.491 17.25H20.507C20.921 17.25 21.257 17.586 21.257 18C21.257 18.964 21.276 19.227 21.283 19.338C21.285 19.361 21.289 19.463 21.289 19.486C21.272 20.314 21.244 22.025 21.244 23.25Z" fill="black"/>
<path d="M20.505 25.998C19.734 25.998 18.159 23.865 18.063 23.617C17.95 23.326 18.024 22.93 18.256 22.722C18.614 22.42 22.408 22.417 22.745 22.72C22.975 22.928 23.051 23.323 22.938 23.613C22.842 23.861 21.28 25.998 20.509 25.998C20.509 25.998 20.507 25.998 20.505 25.998ZM20.25 24.001C20.339 24.096 20.426 24.187 20.506 24.269C20.586 24.187 20.672 24.096 20.76 24.001C20.591 24 20.419 24 20.25 24.001ZM15.479 13.507C14.448 13.507 13.423 13.432 13.255 13.28C13.025 13.072 12.949 12.677 13.062 12.387C13.158 12.139 14.72 10.002 15.491 10.002C15.492 10.002 15.494 10.002 15.496 10.002C16.267 10.002 17.842 12.135 17.938 12.383C18.051 12.674 17.977 13.07 17.745 13.278C17.564 13.43 16.518 13.507 15.479 13.507ZM15.24 12C15.407 12 15.581 12 15.75 12C15.661 11.905 15.574 11.814 15.494 11.732C15.414 11.813 15.328 11.904 15.24 12Z" fill="black"/>
</svg>
