<svg width="36" height="36" viewBox="0 0 36 36" fill="none" xmlns="http://www.w3.org/2000/svg">
<path d="M13.411 34.999C19.709 32.14 25.516 33.44 28.551 32.063C31.586 30.685 37.168 26.047 30.831 12.085C24.494 -1.87701 14.99 -0.0350069 11.651 1.47999C-3.981 8.57499 2.256 40.062 13.411 34.999V34.999Z" fill="#EFEFEF"/>
<path d="M2.99433 26.8635L3.70143 26.1563L5.11566 27.5705L4.40857 28.2777L2.99433 26.8635Z" fill="#A4AFC1"/>
<path d="M7.06033 30.9295L7.76743 30.2224L9.18167 31.6365L8.47457 32.3437L7.06033 30.9295Z" fill="#A4AFC1"/>
<path d="M2.81734 31.6366L4.23153 30.2223L4.93865 30.9294L3.52446 32.3437L2.81734 31.6366Z" fill="#A4AFC1"/>
<path d="M30.5 7.25C29.673 7.25 29 6.577 29 5.75C29 4.923 29.673 4.25 30.5 4.25C31.327 4.25 32 4.923 32 5.75C32 6.577 31.327 7.25 30.5 7.25ZM30.5 5.25C30.224 5.25 30 5.474 30 5.75C30 6.026 30.224 6.25 30.5 6.25C30.776 6.25 31 6.026 31 5.75C31 5.474 30.776 5.25 30.5 5.25Z" fill="#A4AFC1"/>
<path d="M25.25 6.75H10.75C8.541 6.75 6.75 8.541 6.75 10.75V25.25C6.75 27.459 8.541 29.25 10.75 29.25H25.25C27.459 29.25 29.25 27.459 29.25 25.25V10.75C29.25 8.541 27.459 6.75 25.25 6.75ZM18 23.38C15.028 23.38 12.62 20.971 12.62 18C12.62 15.029 15.029 12.62 18 12.62C20.971 12.62 23.38 15.029 23.38 18C23.38 20.971 20.972 23.38 18 23.38ZM24.359 12.62C23.819 12.62 23.381 12.182 23.381 11.642C23.381 11.102 23.819 10.664 24.359 10.664C24.899 10.664 25.337 11.102 25.337 11.642C25.337 12.182 24.899 12.62 24.359 12.62Z" fill="#F3F3F1"/>
<path d="M18 23.38C20.9713 23.38 23.38 20.9713 23.38 18C23.38 15.0287 20.9713 12.62 18 12.62C15.0287 12.62 12.62 15.0287 12.62 18C12.62 20.9713 15.0287 23.38 18 23.38Z" fill="#2FDF84"/>
<path d="M24.359 12.619C24.8991 12.619 25.337 12.1811 25.337 11.641C25.337 11.1009 24.8991 10.663 24.359 10.663C23.8189 10.663 23.381 11.1009 23.381 11.641C23.381 12.1811 23.8189 12.619 24.359 12.619Z" fill="#2FDF84"/>
<path d="M24.359 12.619C24.8991 12.619 25.337 12.1811 25.337 11.641C25.337 11.1009 24.8991 10.663 24.359 10.663C23.8189 10.663 23.381 11.1009 23.381 11.641C23.381 12.1811 23.8189 12.619 24.359 12.619Z" fill="#00B871"/>
<path d="M9 25.25V10.75C9 8.541 10.791 6.75 13 6.75H10.75C8.541 6.75 6.75 8.541 6.75 10.75V25.25C6.75 27.459 8.541 29.25 10.75 29.25H13C10.791 29.25 9 27.459 9 25.25Z" fill="#D5DBE1"/>
<path d="M14.87 18C14.87 15.415 16.695 13.259 19.125 12.742C18.762 12.664 18.386 12.62 18 12.62C15.028 12.62 12.62 15.029 12.62 18C12.62 20.971 15.029 23.38 18 23.38C18.386 23.38 18.762 23.335 19.125 23.258C16.694 22.741 14.87 20.585 14.87 18V18Z" fill="#00B871"/>
<path d="M25.25 30H10.75C8.131 30 6 27.869 6 25.25V10.75C6 8.131 8.131 6 10.75 6H25.25C27.869 6 30 8.131 30 10.75V25.25C30 27.869 27.869 30 25.25 30ZM10.75 7.5C8.958 7.5 7.5 8.958 7.5 10.75V25.25C7.5 27.042 8.958 28.5 10.75 28.5H25.25C27.042 28.5 28.5 27.042 28.5 25.25V10.75C28.5 8.958 27.042 7.5 25.25 7.5H10.75Z" fill="black"/>
<path d="M18 24.13C14.62 24.13 11.87 21.38 11.87 18C11.87 14.62 14.62 11.87 18 11.87C21.38 11.87 24.13 14.62 24.13 18C24.13 21.38 21.38 24.13 18 24.13ZM18 13.37C15.447 13.37 13.37 15.447 13.37 18C13.37 20.553 15.447 22.63 18 22.63C20.553 22.63 22.63 20.553 22.63 18C22.63 15.447 20.553 13.37 18 13.37V13.37ZM24.359 13.37C23.406 13.37 22.63 12.595 22.63 11.641C22.63 10.688 23.405 9.91299 24.359 9.91299C25.312 9.91299 26.087 10.688 26.087 11.641C26.087 12.594 25.312 13.37 24.359 13.37V13.37ZM24.359 11.413C24.233 11.413 24.13 11.516 24.13 11.641C24.129 11.892 24.587 11.893 24.587 11.641C24.587 11.516 24.484 11.413 24.359 11.413Z" fill="black"/>
</svg>
