<svg width="36" height="36" viewBox="0 0 36 36" fill="none" xmlns="http://www.w3.org/2000/svg">
<path d="M8.377 4.167C15.294 4.167 20.044 0.584 23.377 0.584C26.71 0.584 33.71 2.5 33.71 17.833C33.71 33.166 24.293 35.416 20.627 35.416C3.46 35.417 -3.873 4.167 8.377 4.167Z" fill="#EFEFEF"/>
<path d="M11.6565 7.57334L10.2423 8.98758L10.9495 9.69467L12.3637 8.28044L11.6565 7.57334Z" fill="#A4AFC1"/>
<path d="M7.59053 11.6393L6.17564 13.0543L6.88276 13.7614L8.29765 12.3464L7.59053 11.6393Z" fill="#A4AFC1"/>
<path d="M6.88349 7.39546L6.17663 8.10281L7.59134 9.51653L8.2982 8.80918L6.88349 7.39546Z" fill="#A4AFC1"/>
<path d="M23.732 11.513C22.905 11.513 22.232 10.84 22.232 10.013C22.232 9.186 22.905 8.513 23.732 8.513C24.559 8.513 25.232 9.186 25.232 10.013C25.232 10.84 24.56 11.513 23.732 11.513ZM23.732 9.513C23.457 9.513 23.232 9.738 23.232 10.013C23.232 10.288 23.457 10.513 23.732 10.513C24.007 10.513 24.232 10.288 24.232 10.013C24.232 9.738 24.008 9.513 23.732 9.513Z" fill="#A4AFC1"/>
<path d="M27.25 20.007C27.25 19.318 26.735 18.757 26.1 18.757H16.913C16.277 18.757 15.763 19.318 15.763 20.007C15.763 20.696 16.277 21.257 16.913 21.257H26.1C26.735 21.257 27.25 20.696 27.25 20.007Z" fill="#2FDF84"/>
<path d="M9.107 23.8L13.056 27.889C13.947 28.807 15.179 29.25 16.539 29.25C17.899 29.25 19.131 28.77 20.023 27.849L22.393 25.377C22.86 24.895 22.844 24.097 22.358 23.596C21.872 23.094 21.099 23.077 20.633 23.559L18.183 26.003C17.76 26.441 17.174 26.624 16.527 26.624C15.88 26.624 15.294 26.441 14.87 26.003L10.935 21.912C10.511 21.474 10.297 20.834 10.297 20.165C10.297 19.497 10.511 18.893 10.935 18.455L14.858 14.349C15.482 13.784 16.097 13.668 16.527 13.668C17.174 13.668 17.449 13.819 18.183 14.365L20.633 16.308C21.1 16.791 21.873 16.774 22.359 16.272C22.845 15.769 22.861 14.972 22.394 14.49L20.024 12.519C18.988 11.631 18.422 11.378 17.834 11.272L17.803 11.265L20.044 8.91801C20.513 8.43601 20.496 7.63701 20.01 7.13601C19.524 6.63401 18.75 6.61801 18.282 7.10001L9.108 16.57C8.217 17.491 7.751 18.761 7.751 20.165C7.75 21.571 8.216 22.881 9.107 23.8Z" fill="#F3F3F1"/>
<path d="M18.013 20.007C18.013 19.318 18.527 18.757 19.163 18.757H16.913C16.277 18.757 15.763 19.318 15.763 20.007C15.763 20.696 16.277 21.257 16.913 21.257H19.163C18.528 21.257 18.013 20.696 18.013 20.007Z" fill="#00B871"/>
<path d="M18.182 14.365L20.632 16.308C21.099 16.791 21.872 16.774 22.358 16.272C22.43 16.198 22.47 16.107 22.522 16.022L20.433 14.365C19.699 13.819 19.424 13.668 18.777 13.668C18.467 13.668 18.06 13.734 17.624 13.98C17.784 14.08 17.959 14.2 18.182 14.365Z" fill="#D5DBE1"/>
<path d="M15.306 27.889L11.357 23.8C10.466 22.881 10 21.571 10 20.167C10 18.763 10.466 17.492 11.357 16.572L20.206 7.438C20.149 7.333 20.096 7.227 20.009 7.137C19.523 6.635 18.749 6.61999 18.281 7.10099L9.107 16.571C8.216 17.492 7.75 18.762 7.75 20.166C7.75 21.57 8.216 22.88 9.107 23.799L13.056 27.888C13.947 28.806 15.179 29.249 16.539 29.249C16.923 29.249 17.292 29.201 17.65 29.125C16.749 28.942 15.939 28.541 15.306 27.889Z" fill="#D5DBE1"/>
<path d="M20.432 26.003L22.55 23.89C22.494 23.788 22.442 23.683 22.357 23.595C21.871 23.093 21.098 23.076 20.632 23.559L18.182 26.003C18.027 26.163 17.844 26.279 17.651 26.374C17.986 26.539 18.366 26.623 18.776 26.623C19.423 26.624 20.008 26.441 20.432 26.003Z" fill="#D5DBE1"/>
<path d="M26.1 22.007H16.913C15.866 22.007 15.014 21.11 15.014 20.007C15.014 18.904 15.867 18.007 16.913 18.007H26.1C27.148 18.007 28 18.904 28 20.007C28 21.11 27.147 22.007 26.1 22.007ZM16.913 19.507C16.696 19.507 16.514 19.736 16.514 20.007C16.514 20.278 16.697 20.507 16.913 20.507H26.1C26.317 20.507 26.5 20.278 26.5 20.007C26.5 19.736 26.316 19.507 26.1 19.507H16.913Z" fill="black"/>
<path d="M16.538 30C14.917 30 13.527 29.45 12.517 28.411L8.568 24.321C7.557 23.278 7 21.803 7 20.167C7 18.557 7.557 17.095 8.568 16.05L17.742 6.58C18.104 6.206 18.592 6 19.113 6C19.113 6 19.113 6 19.114 6C19.654 6 20.163 6.218 20.548 6.614C21.314 7.406 21.328 8.675 20.58 9.442L19.137 10.953C19.549 11.18 19.986 11.5 20.511 11.95L22.872 13.913C23.676 14.737 23.66 16.006 22.896 16.795C22.51 17.192 22.001 17.41 21.461 17.41C21.46 17.41 21.46 17.41 21.459 17.41C20.938 17.41 20.452 17.203 20.092 16.829L17.715 14.953C17.047 14.456 16.932 14.419 16.525 14.419C16.103 14.419 15.722 14.578 15.361 14.905L11.475 18.974C11.193 19.265 11.045 19.676 11.045 20.165C11.045 20.663 11.2 21.11 11.472 21.391L15.409 25.482C15.66 25.742 16.036 25.874 16.525 25.874C17.015 25.874 17.391 25.742 17.641 25.482L20.102 23.028C20.453 22.665 20.938 22.459 21.459 22.458C21.459 22.458 21.46 22.458 21.461 22.458C22 22.458 22.51 22.677 22.895 23.074C23.66 23.864 23.675 25.132 22.929 25.899L20.564 28.368C19.542 29.422 18.113 30 16.538 30ZM19.113 7.5C19.034 7.5 18.919 7.521 18.819 7.624L9.646 17.093C8.907 17.856 8.5 18.948 8.5 20.167C8.5 21.411 8.907 22.516 9.646 23.277C9.647 23.278 9.647 23.278 9.647 23.279L13.595 27.368C14.315 28.108 15.332 28.5 16.538 28.5C17.721 28.5 18.74 28.095 19.484 27.327L21.849 24.858C22.037 24.665 22.021 24.327 21.817 24.117C21.717 24.014 21.591 23.958 21.461 23.958C21.383 23.958 21.269 23.979 21.171 24.08L18.711 26.534C18.185 27.08 17.426 27.374 16.525 27.374C15.627 27.374 14.867 27.08 14.33 26.524L10.393 22.433C9.847 21.868 9.545 21.062 9.545 20.165C9.545 19.291 9.847 18.498 10.394 17.934L14.315 13.83C14.985 13.221 15.736 12.918 16.525 12.918C17.403 12.918 17.84 13.176 18.629 13.763L21.097 15.72C21.269 15.888 21.382 15.909 21.461 15.909C21.592 15.909 21.719 15.852 21.818 15.75C22.02 15.54 22.037 15.201 21.852 15.011L19.541 13.096C18.515 12.215 18.067 12.076 17.697 12.01C17.426 11.96 17.187 11.763 17.102 11.5C17.016 11.237 17.066 10.946 17.257 10.747L19.498 8.4C19.687 8.205 19.671 7.867 19.468 7.657C19.372 7.557 19.245 7.5 19.113 7.5Z" fill="black"/>
</svg>
