<svg width="36" height="36" viewBox="0 0 36 36" fill="none" xmlns="http://www.w3.org/2000/svg">
<path d="M34.928 20.591C31.235 14.743 31.729 8.81301 29.949 5.99501C28.169 3.17701 22.811 -1.71899 9.84599 6.46801C-3.11901 14.655 0.00599241 23.818 1.96399 26.918C11.13 41.433 41.468 30.949 34.928 20.591Z" fill="#EFEFEF"/>
<path d="M6.97163 4.40887L8.38582 2.99464L9.09294 3.70173L7.67875 5.11597L6.97163 4.40887Z" fill="#A4AFC1"/>
<path d="M2.90634 8.47458L4.32053 7.06034L5.02765 7.76744L3.61346 9.18167L2.90634 8.47458Z" fill="#A4AFC1"/>
<path d="M2.90562 3.52477L3.61272 2.81765L5.02696 4.23183L4.31986 4.93895L2.90562 3.52477Z" fill="#A4AFC1"/>
<path d="M30 12.596C29.173 12.596 28.5 11.923 28.5 11.096C28.5 10.269 29.173 9.59601 30 9.59601C30.827 9.59601 31.5 10.269 31.5 11.096C31.5 11.923 30.827 12.596 30 12.596ZM30 10.596C29.724 10.596 29.5 10.82 29.5 11.096C29.5 11.372 29.724 11.596 30 11.596C30.276 11.596 30.5 11.372 30.5 11.096C30.5 10.82 30.276 10.596 30 10.596Z" fill="#A4AFC1"/>
<path d="M29.245 29.25V29.249H29.25V20.997C29.25 16.96 28.381 13.851 23.662 13.851C21.393 13.851 19.871 15.096 19.249 16.277H19.184V14.228H14.71V29.249H19.37V21.811C19.37 19.852 19.742 17.959 22.167 17.959C24.557 17.959 24.592 20.194 24.592 21.937V29.25H29.245Z" fill="#F3F3F1"/>
<path d="M7.122 14.229H11.787V29.25H7.122V14.229ZM9.451 6.75C7.96 6.75 6.75 7.961 6.75 9.452C6.75 10.943 7.96 12.179 9.451 12.179C10.942 12.179 12.153 10.944 12.153 9.452C12.153 7.961 10.943 6.75 9.451 6.75Z" fill="#2FDF84"/>
<path d="M21.433 16.276H21.498C22.024 15.279 23.198 14.244 24.916 13.944C24.529 13.888 24.118 13.85 23.661 13.85C22.811 13.85 22.065 14.025 21.432 14.306V16.276H21.433ZM14.709 14.227H16.959V29.248H14.709V14.227ZM24.415 17.959C23.936 17.959 23.557 18.05 23.226 18.184C24.544 18.775 24.59 20.511 24.59 21.937V29.249H26.84V21.937C26.84 20.194 26.805 17.959 24.415 17.959Z" fill="#D5DBE1"/>
<path d="M7.122 14.229H9.372V29.25H7.122V14.229ZM9 9.452C9 8.363 9.648 7.43 10.576 7.002C10.233 6.844 9.854 6.75 9.451 6.75C7.96 6.75 6.75 7.961 6.75 9.452C6.75 10.943 7.96 12.179 9.451 12.179C9.854 12.179 10.232 12.083 10.576 11.922C9.648 11.487 9 10.541 9 9.452Z" fill="#00B871"/>
<path d="M29.245 30H24.59C24.176 30 23.84 29.664 23.84 29.25V21.938C23.84 19.706 23.598 18.71 22.165 18.71C20.869 18.71 20.119 19.217 20.119 21.812V29.25C20.119 29.664 19.783 30 19.369 30H14.709C14.295 30 13.959 29.664 13.959 29.25V14.228C13.959 13.814 14.295 13.478 14.709 13.478H19.183C19.597 13.478 19.933 13.814 19.933 14.228V14.348C20.835 13.639 22.088 13.101 23.662 13.101C29.28 13.101 30 17.321 30 20.997V29.249C30 29.663 29.664 29.999 29.25 29.999L29.245 30ZM25.34 28.5H28.5V20.997C28.5 16.334 27.188 14.601 23.662 14.601C21.682 14.601 20.405 15.692 19.912 16.626C19.782 16.872 19.527 17.026 19.248 17.026C18.834 17.026 18.433 16.69 18.433 16.276V14.978H15.459V28.499H18.619V21.811C18.619 20.673 18.619 17.209 22.165 17.209C25.34 17.209 25.34 20.285 25.34 21.937V28.5ZM11.787 30H7.122C6.708 30 6.372 29.664 6.372 29.25V14.229C6.372 13.815 6.708 13.479 7.122 13.479H11.787C12.201 13.479 12.537 13.815 12.537 14.229V29.25C12.537 29.664 12.201 30 11.787 30ZM7.872 28.5H11.037V14.979H7.872V28.5ZM9.452 12.929C7.548 12.929 6 11.369 6 9.452C6 7.549 7.548 6 9.452 6C11.355 6 12.903 7.549 12.903 9.452C12.903 11.369 11.354 12.929 9.452 12.929ZM9.452 7.5C8.375 7.5 7.5 8.375 7.5 9.452C7.5 10.542 8.375 11.429 9.452 11.429C10.528 11.429 11.403 10.542 11.403 9.452C11.403 8.375 10.527 7.5 9.452 7.5Z" fill="black"/>
</svg>
