<svg width="36" height="36" viewBox="0 0 36 36" fill="none" xmlns="http://www.w3.org/2000/svg">
<path d="M34.904 20.355C31.122 14.564 31.524 8.62799 29.701 5.83699C27.878 3.04599 22.445 -1.76601 9.60801 6.61899C-3.22899 15.004 0.0360111 24.119 2.04201 27.188C11.43 41.56 41.603 30.611 34.904 20.355V20.355Z" fill="#EFEFEF"/>
<path d="M7.72235 6.71257L9.13654 5.29833L9.84366 6.00543L8.42947 7.41966L7.72235 6.71257Z" fill="#A4AFC1"/>
<path d="M3.65634 10.7786L5.07053 9.36434L5.77765 10.0714L4.36346 11.4857L3.65634 10.7786Z" fill="#A4AFC1"/>
<path d="M3.65628 5.82861L4.36328 5.1214L5.77771 6.53539L5.07072 7.2426L3.65628 5.82861Z" fill="#A4AFC1"/>
<path d="M29 10C28.108 10.523 27 10.875 25.697 10.437C24.85 9.549 23.644 9 22.328 9C19.774 9 17.718 11.041 17.718 13.542C17.718 13.902 17.749 14.248 17.825 14.578C13.991 14.393 10.597 12.584 8.317 9.827C7.919 10.507 7.685 11.285 7.685 12.123C7.685 13.696 8.507 15.09 9.734 15.897C8.992 15.883 8.266 15.671 7.65 15.338V15.388C7.65 17.595 9.248 19.428 11.346 19.851C10.97 19.952 10.561 20 10.136 20C9.841 20 9.543 19.983 9.263 19.922C9.86 21.72 11.557 23.043 13.573 23.086C12.004 24.294 10.011 25.023 7.853 25.023C7.475 25.023 7.112 25.006 6.75 24.961C8.794 26.259 11.214 27 13.826 27C22.314 27 26.955 20.077 26.955 14.076C26.955 13.876 26.948 13.681 26.938 13.489C27.853 12.849 29 11.333 29 10V10Z" fill="#F3F3F1"/>
<path d="M20.075 14.578C19.999 14.248 19.968 13.902 19.968 13.542C19.968 11.423 21.45 9.648 23.454 9.151C23.09 9.061 22.716 9 22.328 9C19.774 9 17.718 11.041 17.718 13.542C17.718 13.784 17.739 14.017 17.771 14.246C18.518 14.417 19.284 14.54 20.075 14.578V14.578ZM28.915 10.627C28.965 10.416 29 10.206 29 10C28.693 10.18 28.358 10.337 28 10.451C28.317 10.553 28.622 10.61 28.915 10.627ZM9 24.962C9.363 25.007 9.726 25.024 10.103 25.024C12.26 25.024 14.253 24.296 15.823 23.087C13.807 23.044 12.11 21.721 11.513 19.923C11.793 19.984 12.091 20 12.386 20C12.811 20 13.219 19.952 13.595 19.85C11.498 19.428 9.9 17.595 9.9 15.388C9.9 15.37 9.9 15.352 9.9 15.338C10.516 15.671 11.243 15.884 11.984 15.897C10.757 15.089 9.935 13.695 9.935 12.123C9.935 11.908 9.952 11.697 9.981 11.49C9.38 10.983 8.817 10.433 8.317 9.827C7.919 10.507 7.685 11.285 7.685 12.123C7.685 13.696 8.507 15.09 9.734 15.897C8.992 15.883 8.266 15.671 7.65 15.338V15.388C7.65 17.595 9.248 19.428 11.346 19.851C10.97 19.952 10.561 20 10.136 20C9.841 20 9.543 19.983 9.263 19.922C9.86 21.72 11.557 23.043 13.573 23.086C12.004 24.294 10.011 25.023 7.853 25.023C7.475 25.023 7.112 25.006 6.75 24.961C8.794 26.259 11.214 27 13.826 27C14.197 27 14.552 26.97 14.909 26.945C12.744 26.758 10.735 26.063 9 24.962V24.962Z" fill="#D5DBE1"/>
<path d="M13.826 27.75C11.156 27.75 8.57 27.005 6.348 25.595C6.052 25.407 5.926 25.039 6.044 24.709C6.163 24.378 6.489 24.174 6.842 24.218C7.148 24.256 7.479 24.274 7.853 24.274C9.153 24.274 10.438 23.978 11.598 23.424C10.183 22.836 9.051 21.662 8.551 20.16C8.466 19.904 8.525 19.622 8.705 19.422C8.717 19.408 8.729 19.396 8.743 19.383C7.606 18.399 6.9 16.957 6.9 15.388C6.9 15.124 7.039 14.854 7.266 14.719C7.358 14.664 7.459 14.626 7.563 14.609C7.156 13.856 6.935 13.005 6.935 12.123C6.935 11.183 7.182 10.283 7.669 9.44901C7.792 9.23701 8.012 9.10001 8.256 9.08001C8.5 9.06201 8.738 9.16101 8.895 9.34901C10.921 11.799 13.827 13.374 16.972 13.754C16.97 13.685 16.969 13.614 16.969 13.543C16.969 10.625 19.373 8.25101 22.329 8.25101C23.735 8.25101 25.098 8.80501 26.099 9.77701C26.932 10.01 27.737 9.87401 28.622 9.35401C28.854 9.21901 29.142 9.21701 29.374 9.35001C29.606 9.48301 29.75 9.73101 29.75 10C29.75 11.499 28.643 13.037 27.702 13.843C27.704 13.92 27.705 13.998 27.705 14.076C27.705 20.798 22.514 27.75 13.826 27.75V27.75ZM9.786 25.588C11.074 26.025 12.437 26.25 13.827 26.25C21.576 26.25 26.206 20.06 26.206 14.076C26.206 13.888 26.199 13.705 26.19 13.525C26.177 13.268 26.298 13.022 26.509 12.874C27.004 12.528 27.533 11.913 27.877 11.265C27.066 11.455 26.258 11.417 25.459 11.148C25.343 11.109 25.239 11.043 25.155 10.955C24.425 10.189 23.394 9.75001 22.328 9.75001C20.2 9.75001 18.468 11.451 18.468 13.542C18.468 13.87 18.497 14.153 18.556 14.409C18.609 14.638 18.551 14.878 18.401 15.059C18.251 15.239 18.036 15.336 17.789 15.327C14.292 15.159 10.987 13.671 8.551 11.203C8.474 11.503 8.435 11.81 8.435 12.122C8.435 13.388 9.075 14.564 10.147 15.27C10.426 15.454 10.55 15.8 10.451 16.119C10.352 16.438 10.068 16.65 9.721 16.647C9.339 16.64 8.954 16.588 8.577 16.495C8.99 17.811 10.092 18.833 11.494 19.115C11.835 19.184 12.084 19.478 12.096 19.826C12.108 20.174 11.878 20.484 11.542 20.575C11.221 20.661 10.878 20.717 10.518 20.739C11.221 21.7 12.35 22.311 13.59 22.337C13.908 22.344 14.187 22.551 14.286 22.853C14.386 23.155 14.283 23.487 14.031 23.681C12.789 24.637 11.326 25.289 9.786 25.588V25.588Z" fill="black"/>
</svg>
