<svg width="36" height="36" viewBox="0 0 36 36" fill="none" xmlns="http://www.w3.org/2000/svg">
<path d="M27.417 3.914C20.502 4.043 15.685 0.549002 12.353 0.612002C9.02099 0.675002 2.05699 2.721 2.34399 18.052C2.63099 33.383 12.088 35.456 15.754 35.388C32.917 35.067 39.665 3.685 27.417 3.914V3.914Z" fill="#EFEFEF"/>
<path d="M19.875 3.562H21.875V4.562H19.875V3.562ZM14.125 3.562H16.125V4.562H14.125V3.562ZM17.625 0.0619965H18.625V2.062H17.625V0.0619965ZM29 13.931C28.173 13.931 27.5 13.258 27.5 12.431C27.5 11.604 28.173 10.931 29 10.931C29.827 10.931 30.5 11.604 30.5 12.431C30.5 13.258 29.827 13.931 29 13.931ZM29 11.931C28.724 11.931 28.5 12.155 28.5 12.431C28.5 12.707 28.724 12.931 29 12.931C29.276 12.931 29.5 12.707 29.5 12.431C29.5 12.155 29.276 11.931 29 11.931Z" fill="#A4AFC1"/>
<path d="M22.219 22.922H13.781V16.594H6.75V29.25H29.25V16.594H22.219V22.922Z" fill="#F3F3F1"/>
<path d="M13.781 6.75H22.219V13.078H13.781V6.75Z" fill="#2FDF84"/>
<path d="M22.219 16.594H24.469V22.922H22.219V16.594ZM6.75 16.594H9V29.25H6.75V16.594Z" fill="#D5DBE1"/>
<path d="M13.781 6.75H16.031V13.078H13.781V6.75Z" fill="#00B871"/>
<path d="M29.25 30H6.75C6.336 30 6 29.664 6 29.25V16.594C6 16.18 6.336 15.844 6.75 15.844H13.781C14.195 15.844 14.531 16.18 14.531 16.594V22.172H21.469V16.594C21.469 16.18 21.805 15.844 22.219 15.844H29.25C29.664 15.844 30 16.18 30 16.594V29.25C30 29.664 29.664 30 29.25 30V30ZM7.5 28.5H28.5V17.344H22.969V22.922C22.969 23.336 22.633 23.672 22.219 23.672H13.781C13.367 23.672 13.031 23.336 13.031 22.922V17.344H7.5V28.5ZM22.219 13.828H13.781C13.367 13.828 13.031 13.492 13.031 13.078V6.75C13.031 6.336 13.367 6 13.781 6H22.219C22.633 6 22.969 6.336 22.969 6.75V13.078C22.969 13.492 22.633 13.828 22.219 13.828ZM14.531 12.328H21.469V7.5H14.531V12.328Z" fill="black"/>
</svg>
