<svg width="35" height="34" viewBox="0 0 35 34" fill="none" xmlns="http://www.w3.org/2000/svg">
<path fill-rule="evenodd" clip-rule="evenodd" d="M18.0576 0.15736C23.8161 0.326942 30.5844 0.23125 33.7405 5.81724C36.7631 11.1671 33.6792 18.0091 31.4483 23.8579C29.8404 28.0733 27.0373 31.3299 23.3508 33.0564C19.9801 34.635 16.3642 34.0847 12.9957 32.4997C9.254 30.7389 5.88741 28.2099 4.11408 24.0042C1.53558 17.889 -1.95175 10.4975 1.34271 4.86315C4.72722 -0.925193 12.0273 -0.0202289 18.0576 0.15736Z" fill="#EFEFEF"/>
<g clip-path="url(#clip0_4_97)">
<path d="M25.0569 8.02828C23.9289 8.35447 22.8532 8.84422 21.7244 9.16781C19.5136 9.80156 17.1755 9.77933 14.8954 10.08C12.6153 10.3806 10.2448 11.0901 8.72836 12.8192C6.75782 15.066 6.77831 18.6205 8.28749 21.1999C9.79668 23.7794 12.5282 25.4599 15.3907 26.3187C17.7569 27.0287 20.2953 27.2405 22.714 26.7375C25.1327 26.2346 27.4224 24.9914 29.0199 23.1069C30.1361 21.7901 30.8902 20.2058 31.5149 18.5966C32.3121 16.543 32.9254 14.3199 32.5289 12.1529C31.842 8.39953 28.4797 7.03853 25.0569 8.02828Z" fill="#2FDF84" fill-opacity="0.7"/>
<path d="M8.16894 6.49265C8.45011 6.49265 8.67803 6.26473 8.67803 5.98356C8.67803 5.7024 8.45011 5.47447 8.16894 5.47447C7.88778 5.47447 7.65985 5.7024 7.65985 5.98356C7.65985 6.26473 7.88778 6.49265 8.16894 6.49265Z" fill="#FF5892"/>
<path d="M30.6382 5.98363C30.6382 5.70244 30.8658 5.47479 31.147 5.47479C31.4282 5.47479 31.6558 5.70244 31.6558 5.98363C31.6558 6.26482 31.4282 6.49247 31.147 6.49247C30.8658 6.49247 30.6382 6.26481 30.6382 5.98363Z" fill="#06D506"/>
<path d="M10.3167 28.3136C10.5978 28.3136 10.8258 28.0856 10.8258 27.8045C10.8258 27.5233 10.5978 27.2954 10.3167 27.2954C10.0355 27.2954 9.80758 27.5233 9.80758 27.8045C9.80758 28.0856 10.0355 28.3136 10.3167 28.3136Z" fill="#FF5F4A"/>
<path d="M30.05 13.5601V19.4399C30.05 20.1116 29.5055 20.656 28.8338 20.656H11.2378C10.5661 20.656 10.0216 20.1115 10.0216 19.4399V13.5601C10.0216 12.8885 10.5661 12.344 11.2378 12.344H28.8338C29.5055 12.344 30.05 12.8885 30.05 13.5601Z" fill="#FDCB4D"/>
<path d="M19.6818 3.50758C12.4047 3.50758 6.6894 9.4201 6.6894 16.5C6.6894 23.6257 12.4557 29.4924 19.6818 29.4924C26.9332 29.4924 32.6742 23.6126 32.6742 16.5C32.6742 9.35338 26.8943 3.50758 19.6818 3.50758ZM32.1333 16.2349H30.3462V13.5621C30.3462 12.6712 29.6197 11.9447 28.7288 11.9447H26.5015C26.3583 11.2765 26.1886 10.6349 25.9871 10.0197C26.9788 9.46291 27.9068 8.7788 28.7394 7.96214C30.8712 10.2212 32.0644 13.1379 32.1333 16.2349ZM28.3735 7.58034C27.5992 8.34394 26.7348 8.975 25.8174 9.50003C24.953 7.10836 23.6644 5.25761 22.1424 4.28184C24.4864 4.7432 26.6394 5.87805 28.3735 7.58034ZM19.947 4.0485C22.2167 4.2129 24.1947 6.45079 25.356 9.75988C23.6962 10.6084 21.8614 11.0697 19.947 11.1121V4.0485ZM19.947 11.6478C21.9197 11.6053 23.8076 11.1333 25.5204 10.2689C25.6901 10.8046 25.8333 11.3667 25.9606 11.9447H19.947V11.6478ZM14.0129 9.75988C15.1689 6.45079 17.147 4.2129 19.4167 4.0485V11.1121C17.5022 11.0697 15.6674 10.6083 14.0129 9.75988ZM19.4167 11.6478V11.9447H13.403C13.5303 11.3667 13.6788 10.8046 13.8432 10.269C15.5507 11.1333 17.4439 11.6053 19.4167 11.6478ZM17.2212 4.27653C15.6992 5.25761 14.4106 7.10836 13.5515 9.50003C12.6288 8.97501 11.7644 8.34395 10.9901 7.58034C12.7242 5.87805 14.8772 4.7432 17.2212 4.27653ZM10.6242 7.96214C11.4568 8.7788 12.3848 9.46291 13.3765 10.0197C13.175 10.6349 13.0053 11.2765 12.8621 11.9447H11.1333C10.2424 11.9447 9.52119 12.6712 9.52119 13.5621V16.2349H7.23028C7.29922 13.1326 8.4924 10.2159 10.6242 7.96214ZM7.23028 16.7652H9.5212V19.4379C9.5212 20.3288 10.2424 21.0553 11.1333 21.0553H12.8621C13.0053 21.7235 13.175 22.3705 13.3765 22.9803C12.3795 23.5371 11.4515 24.2265 10.6189 25.0432C8.4871 22.7841 7.29922 19.8621 7.23028 16.7652ZM10.9848 25.4197C11.7591 24.6614 12.6288 24.025 13.5515 23.5C14.4106 25.8864 15.6939 27.7424 17.2159 28.7182C14.872 28.2515 12.7242 27.122 10.9848 25.4197ZM19.4167 28.9515C17.147 28.7871 15.1689 26.5439 14.0129 23.2402C15.6674 22.3917 17.5023 21.9303 19.4167 21.8879V28.9515ZM19.4167 21.3523C17.4439 21.3947 15.5507 21.8667 13.8432 22.7311C13.6735 22.1955 13.525 21.6334 13.403 21.0553H19.4167V21.3523ZM11.1333 20.2599C10.6826 20.2599 10.3166 19.8887 10.3166 19.4379V13.5621C10.3166 13.1114 10.6826 12.7402 11.1333 12.7402H28.7288C29.1795 12.7402 29.5508 13.1114 29.5508 13.5621V19.4379C29.5508 19.8887 29.1795 20.2599 28.7288 20.2599H11.1333ZM25.9606 21.0553C25.8386 21.6334 25.6901 22.1955 25.5204 22.7311C23.8129 21.8667 21.9197 21.3947 19.947 21.3523V21.0553L25.9606 21.0553ZM19.947 28.9515V21.8879C21.8614 21.9303 23.7015 22.3917 25.356 23.2402C24.1947 26.5439 22.2167 28.7871 19.9522 28.9515C19.947 28.9515 19.947 28.9515 19.947 28.9515ZM22.1477 28.7182C23.6697 27.7371 24.953 25.8864 25.8121 23.5C26.7348 24.025 27.5992 24.6561 28.3788 25.4197C26.6394 27.122 24.4916 28.2515 22.1477 28.7182ZM28.7447 25.0379C27.9068 24.2212 26.9841 23.5371 25.9924 22.9803C26.1886 22.3705 26.3583 21.7235 26.5015 21.0553H28.7288C29.6197 21.0553 30.3462 20.3288 30.3462 19.4379V16.7652H32.1333C32.0644 19.8621 30.8765 22.7841 28.7447 25.0379Z" fill="#2E3F68"/>
<path d="M15.483 16.1099C15.457 16.1511 15.4288 16.1803 15.3985 16.1977C15.3703 16.215 15.3335 16.2237 15.288 16.2237C15.2403 16.2237 15.1927 16.2139 15.145 16.1944C15.0973 16.1728 15.0453 16.15 14.989 16.1262C14.9348 16.1023 14.8731 16.0807 14.8038 16.0612C14.7344 16.0395 14.6553 16.0287 14.5665 16.0287C14.4387 16.0287 14.3401 16.0536 14.2708 16.1034C14.2036 16.1511 14.17 16.2183 14.17 16.3049C14.17 16.3678 14.1917 16.4198 14.235 16.4609C14.2805 16.5021 14.3401 16.5389 14.4138 16.5714C14.4874 16.6018 14.5708 16.631 14.664 16.6592C14.7572 16.6873 14.8525 16.7188 14.95 16.7534C15.0475 16.7881 15.1428 16.8293 15.236 16.8769C15.3292 16.9224 15.4126 16.9798 15.4863 17.0492C15.5599 17.1163 15.6184 17.1987 15.6618 17.2962C15.7073 17.3937 15.73 17.5107 15.73 17.6472C15.73 17.814 15.6997 17.9678 15.639 18.1087C15.5783 18.2495 15.4873 18.3708 15.366 18.4727C15.2468 18.5745 15.0984 18.6536 14.9208 18.7099C14.7453 18.7663 14.5427 18.7944 14.313 18.7944C14.1982 18.7944 14.0833 18.7836 13.9685 18.7619C13.8537 18.7403 13.7421 18.711 13.6338 18.6742C13.5276 18.6373 13.429 18.594 13.338 18.5442C13.247 18.4922 13.169 18.4369 13.104 18.3784L13.338 18.0079C13.364 17.9646 13.3965 17.931 13.4355 17.9072C13.4767 17.8812 13.5287 17.8682 13.5915 17.8682C13.65 17.8682 13.702 17.8812 13.7475 17.9072C13.7952 17.9332 13.8461 17.9613 13.9003 17.9917C13.9544 18.022 14.0173 18.0502 14.0888 18.0762C14.1624 18.1022 14.2545 18.1152 14.365 18.1152C14.443 18.1152 14.5091 18.1076 14.5633 18.0924C14.6174 18.0751 14.6608 18.0523 14.6933 18.0242C14.7258 17.996 14.7496 17.9646 14.7648 17.9299C14.7799 17.8953 14.7875 17.8595 14.7875 17.8227C14.7875 17.7555 14.7648 17.7003 14.7193 17.6569C14.6738 17.6136 14.6142 17.5768 14.5405 17.5464C14.4668 17.5139 14.3823 17.4847 14.287 17.4587C14.1938 17.4305 14.0985 17.3991 14.001 17.3644C13.9035 17.3298 13.8071 17.2886 13.7118 17.2409C13.6186 17.1911 13.5352 17.1293 13.4615 17.0557C13.3878 16.9798 13.3283 16.8878 13.2828 16.7794C13.2373 16.6711 13.2145 16.54 13.2145 16.3862C13.2145 16.2432 13.2416 16.1078 13.2958 15.9799C13.3521 15.8499 13.4355 15.7362 13.546 15.6387C13.6565 15.5412 13.7952 15.4643 13.962 15.4079C14.1288 15.3494 14.3238 15.3202 14.547 15.3202C14.6683 15.3202 14.7853 15.331 14.898 15.3527C15.0128 15.3743 15.1201 15.4047 15.2198 15.4437C15.3194 15.4827 15.4104 15.5293 15.4928 15.5834C15.5751 15.6354 15.6477 15.6928 15.7105 15.7557L15.483 16.1099ZM18.306 15.3722V18.7424H17.2985V15.3722H18.306ZM18.41 14.4492C18.41 14.5293 18.3938 14.6052 18.3613 14.6767C18.3288 14.746 18.2844 14.8078 18.228 14.8619C18.1717 14.9139 18.1056 14.9562 18.0298 14.9887C17.9561 15.019 17.877 15.0342 17.7925 15.0342C17.7102 15.0342 17.6333 15.019 17.5618 14.9887C17.4903 14.9562 17.4264 14.9139 17.37 14.8619C17.3159 14.8078 17.2725 14.746 17.24 14.6767C17.2097 14.6052 17.1945 14.5293 17.1945 14.4492C17.1945 14.3668 17.2097 14.2899 17.24 14.2184C17.2725 14.1469 17.3159 14.0841 17.37 14.0299C17.4264 13.9758 17.4903 13.9335 17.5618 13.9032C17.6333 13.8728 17.7102 13.8577 17.7925 13.8577C17.877 13.8577 17.9561 13.8728 18.0298 13.9032C18.1056 13.9335 18.1717 13.9758 18.228 14.0299C18.2844 14.0841 18.3288 14.1469 18.3613 14.2184C18.3938 14.2899 18.41 14.3668 18.41 14.4492ZM21.2544 18.7944C21.0941 18.7944 20.9522 18.7717 20.8287 18.7262C20.7074 18.6785 20.6044 18.6124 20.5199 18.5279C20.4376 18.4413 20.3748 18.3373 20.3314 18.2159C20.2881 18.0946 20.2664 17.9592 20.2664 17.8097V16.0677H19.9804C19.9284 16.0677 19.884 16.0514 19.8472 16.0189C19.8104 15.9843 19.7919 15.9344 19.7919 15.8694V15.4762L20.3282 15.3722L20.5264 14.5499C20.5524 14.4459 20.6261 14.3939 20.7474 14.3939H21.2739V15.3787H22.1092V16.0677H21.2739V17.7414C21.2739 17.8194 21.2924 17.8844 21.3292 17.9364C21.3682 17.9863 21.4234 18.0112 21.4949 18.0112C21.5318 18.0112 21.5621 18.0079 21.5859 18.0014C21.6119 17.9928 21.6336 17.9841 21.6509 17.9754C21.6704 17.9646 21.6878 17.9559 21.7029 17.9494C21.7203 17.9408 21.7398 17.9364 21.7614 17.9364C21.7918 17.9364 21.8156 17.944 21.8329 17.9592C21.8524 17.9722 21.8719 17.9938 21.8914 18.0242L22.1969 18.5019C22.0669 18.5994 21.9207 18.6731 21.7582 18.7229C21.5957 18.7706 21.4278 18.7944 21.2544 18.7944ZM25.6478 16.6527C25.6478 16.5725 25.637 16.4945 25.6153 16.4187C25.5958 16.3428 25.5622 16.2757 25.5146 16.2172C25.4691 16.1565 25.4084 16.1078 25.3326 16.0709C25.2567 16.0341 25.1647 16.0157 25.0563 16.0157C24.8657 16.0157 24.7162 16.0709 24.6078 16.1814C24.4995 16.2898 24.428 16.4468 24.3933 16.6527H25.6478ZM24.3803 17.2377C24.4128 17.5193 24.4984 17.7241 24.6371 17.8519C24.7757 17.9776 24.9545 18.0404 25.1733 18.0404C25.2903 18.0404 25.3911 18.0263 25.4756 17.9982C25.5601 17.97 25.6348 17.9386 25.6998 17.9039C25.767 17.8693 25.8277 17.8378 25.8818 17.8097C25.9382 17.7815 25.9967 17.7674 26.0573 17.7674C26.1375 17.7674 26.1982 17.7967 26.2393 17.8552L26.5318 18.2159C26.4278 18.3351 26.3152 18.4326 26.1938 18.5084C26.0747 18.5821 25.9512 18.6406 25.8233 18.6839C25.6977 18.7251 25.5709 18.7533 25.4431 18.7684C25.3174 18.7858 25.1972 18.7944 25.0823 18.7944C24.8462 18.7944 24.6241 18.7565 24.4161 18.6807C24.2102 18.6027 24.0293 18.4878 23.8733 18.3362C23.7195 18.1845 23.5971 17.996 23.5061 17.7707C23.4172 17.5453 23.3728 17.2832 23.3728 16.9842C23.3728 16.7588 23.4107 16.5454 23.4866 16.3439C23.5646 16.1424 23.6751 15.9658 23.8181 15.8142C23.9632 15.6625 24.1377 15.5423 24.3413 15.4534C24.5472 15.3646 24.779 15.3202 25.0368 15.3202C25.26 15.3202 25.4637 15.3548 25.6478 15.4242C25.8342 15.4935 25.9934 15.5943 26.1256 15.7264C26.2599 15.8586 26.3639 16.0211 26.4376 16.2139C26.5134 16.4046 26.5513 16.6213 26.5513 16.8639C26.5513 16.9398 26.5481 17.0015 26.5416 17.0492C26.5351 17.0968 26.5232 17.1348 26.5058 17.1629C26.4885 17.1911 26.4647 17.2106 26.4343 17.2214C26.4062 17.2323 26.3693 17.2377 26.3238 17.2377H24.3803Z" fill="#2E3F68"/>
</g>
<defs>
<clipPath id="clip0_4_97">
<rect width="26.5152" height="26.5152" fill="white" transform="translate(6.42424 3.24243)"/>
</clipPath>
</defs>
</svg>
